solid inlet
facet normal -1.000000 0.000000 0.000000
outer loop
vertex 263.071777 15.038171 0.806271
vertex 263.071777 15.140675 1.606733
vertex 263.071777 15.310692 2.395618
endloop
endfacet
facet normal -1.000000 0.000000 0.000000
outer loop
vertex 263.071777 15.310692 2.395618
vertex 263.071777 15.546999 3.167243
vertex 263.071777 15.847894 3.916048
endloop
endfacet
facet normal -1.000000 -0.000553 0.000000
outer loop
vertex 263.071777 15.847894 3.916048
vertex 263.071777 16.211208 4.636638
vertex 263.071777 16.634323 5.323821
endloop
endfacet
facet normal -1.000000 -0.000553 0.000000
outer loop
vertex 263.071777 16.634323 5.323821
vertex 263.071777 17.114191 5.972645
vertex 263.071777 17.647354 6.578436
endloop
endfacet
facet normal -1.000000 -0.000553 0.000000
outer loop
vertex 263.071777 17.647354 6.578436
vertex 263.071777 18.229971 7.136829
vertex 263.071777 18.857845 7.643802
endloop
endfacet
facet normal -1.000000 0.000000 0.000000
outer loop
vertex 263.071777 18.857845 7.643802
vertex 263.071777 19.526451 8.095700
vertex 263.071777 20.230972 8.489269
endloop
endfacet
facet normal -1.000000 -0.000276 0.000000
outer loop
vertex 263.071777 20.230972 8.489269
vertex 263.071777 20.966331 8.821673
vertex 263.071777 21.727232 9.090516
endloop
endfacet
facet normal -1.000000 0.000000 0.000000
outer loop
vertex 263.071777 21.727232 9.090516
vertex 263.071777 22.508190 9.293862
vertex 263.071777 23.303581 9.430245
endloop
endfacet
facet normal -1.000000 0.000000 0.000000
outer loop
vertex 263.071777 23.303581 9.430245
vertex 263.071777 24.107672 9.498684
vertex 263.071777 24.914671 9.498684
endloop
endfacet
facet normal -1.000000 0.000000 0.000000
outer loop
vertex 263.071777 24.914671 9.498684
vertex 263.071777 25.718761 9.430245
vertex 263.071777 26.514153 9.293862
endloop
endfacet
facet normal -1.000000 0.000000 0.000000
outer loop
vertex 263.071777 26.514153 9.293862
vertex 263.071777 27.295111 9.090516
vertex 263.071777 28.056011 8.821673
endloop
endfacet
facet normal -1.000000 -0.000276 0.000000
outer loop
vertex 263.071777 28.056011 8.821673
vertex 263.071777 28.791370 8.489269
vertex 263.071777 29.495892 8.095700
endloop
endfacet
facet normal -1.000000 0.000553 0.000000
outer loop
vertex 263.071777 29.495892 8.095700
vertex 263.071777 30.164497 7.643802
vertex 263.071777 30.792372 7.136829
endloop
endfacet
facet normal -1.000000 0.000553 0.000000
outer loop
vertex 263.071777 30.792372 7.136829
vertex 263.071777 31.374989 6.578436
vertex 263.071777 31.908152 5.972645
endloop
endfacet
facet normal -1.000000 0.000000 0.000000
outer loop
vertex 263.071777 31.908152 5.972645
vertex 263.071777 32.388020 5.323821
vertex 263.071777 32.811134 4.636638
endloop
endfacet
facet normal -1.000000 0.000000 0.000000
outer loop
vertex 263.071777 32.811134 4.636638
vertex 263.071777 33.174450 3.916048
vertex 263.071777 33.475342 3.167243
endloop
endfacet
facet normal -1.000000 0.000000 0.000000
outer loop
vertex 263.071777 33.475342 3.167243
vertex 263.071777 33.711651 2.395618
vertex 263.071777 33.881668 1.606733
endloop
endfacet
facet normal -1.000000 0.000000 0.000000
outer loop
vertex 263.071777 33.881668 1.606733
vertex 263.071777 33.984173 0.806271
vertex 263.071777 34.018421 -0.000000
endloop
endfacet
facet normal -1.000000 0.000000 0.000000
outer loop
vertex 263.071777 34.018421 -0.000000
vertex 263.071777 33.984173 -0.806271
vertex 263.071777 33.881668 -1.606733
endloop
endfacet
facet normal -1.000000 0.000000 0.000000
outer loop
vertex 263.071777 33.881668 -1.606733
vertex 263.071777 33.711651 -2.395618
vertex 263.071777 33.475342 -3.167243
endloop
endfacet
facet normal -1.000000 0.000000 0.000000
outer loop
vertex 263.071777 33.475342 -3.167243
vertex 263.071777 33.174450 -3.916048
vertex 263.071777 32.811134 -4.636638
endloop
endfacet
facet normal -1.000000 0.000000 0.000000
outer loop
vertex 263.071777 32.811134 -4.636638
vertex 263.071777 32.388020 -5.323821
vertex 263.071777 31.908152 -5.972645
endloop
endfacet
facet normal -1.000000 0.000553 0.000000
outer loop
vertex 263.071777 31.908152 -5.972645
vertex 263.071777 31.374989 -6.578436
vertex 263.071777 30.792372 -7.136829
endloop
endfacet
facet normal -1.000000 0.000553 0.000000
outer loop
vertex 263.071777 30.792372 -7.136829
vertex 263.071777 30.164497 -7.643802
vertex 263.071777 29.495892 -8.095700
endloop
endfacet
facet normal -1.000000 -0.000276 0.000000
outer loop
vertex 263.071777 29.495892 -8.095700
vertex 263.071777 28.791370 -8.489269
vertex 263.071777 28.056011 -8.821673
endloop
endfacet
facet normal -1.000000 0.000000 0.000000
outer loop
vertex 263.071777 28.056011 -8.821673
vertex 263.071777 27.295111 -9.090516
vertex 263.071777 26.514153 -9.293862
endloop
endfacet
facet normal -1.000000 0.000000 0.000000
outer loop
vertex 263.071777 26.514153 -9.293862
vertex 263.071777 25.718761 -9.430245
vertex 263.071777 24.914671 -9.498684
endloop
endfacet
facet normal -1.000000 0.000000 0.000000
outer loop
vertex 263.071777 24.914671 -9.498684
vertex 263.071777 24.107672 -9.498684
vertex 263.071777 23.303581 -9.430245
endloop
endfacet
facet normal -1.000000 0.000000 0.000000
outer loop
vertex 263.071777 23.303581 -9.430245
vertex 263.071777 22.508190 -9.293862
vertex 263.071777 21.727232 -9.090516
endloop
endfacet
facet normal -1.000000 -0.000276 0.000000
outer loop
vertex 263.071777 21.727232 -9.090516
vertex 263.071777 20.966331 -8.821673
vertex 263.071777 20.230972 -8.489269
endloop
endfacet
facet normal -1.000000 0.000000 0.000000
outer loop
vertex 263.071777 20.230972 -8.489269
vertex 263.071777 19.526451 -8.095700
vertex 263.071777 18.857845 -7.643802
endloop
endfacet
facet normal -1.000000 -0.000553 0.000000
outer loop
vertex 263.071777 18.857845 -7.643802
vertex 263.071777 18.229971 -7.136829
vertex 263.071777 17.647354 -6.578436
endloop
endfacet
facet normal -1.000000 -0.000553 0.000000
outer loop
vertex 263.071777 17.647354 -6.578436
vertex 263.071777 17.114191 -5.972645
vertex 263.071777 16.634323 -5.323821
endloop
endfacet
facet normal -1.000000 -0.000553 0.000000
outer loop
vertex 263.071777 16.634323 -5.323821
vertex 263.071777 16.211208 -4.636638
vertex 263.071777 15.847894 -3.916048
endloop
endfacet
facet normal -1.000000 0.000000 0.000000
outer loop
vertex 263.071777 15.847894 -3.916048
vertex 263.071777 15.546999 -3.167243
vertex 263.071777 15.310692 -2.395618
endloop
endfacet
facet normal -1.000000 -0.000553 0.000000
outer loop
vertex 263.071777 15.310692 -2.395618
vertex 263.071777 15.140675 -1.606733
vertex 263.071777 15.038171 -0.806271
endloop
endfacet
facet normal -1.000000 0.000553 0.000000
outer loop
vertex 263.071777 15.038171 -0.806271
vertex 263.071777 15.003921 -0.000000
vertex 263.071777 15.038171 0.806271
endloop
endfacet
facet normal -1.000000 0.000000 0.000000
outer loop
vertex 263.071777 15.038171 0.806271
vertex 263.071777 15.310692 2.395618
vertex 263.071777 15.847894 3.916048
endloop
endfacet
facet normal -1.000000 0.000139 0.000000
outer loop
vertex 263.071777 15.847894 3.916048
vertex 263.071777 16.634323 5.323821
vertex 263.071777 17.647354 6.578436
endloop
endfacet
facet normal -1.000000 0.000069 0.000000
outer loop
vertex 263.071777 17.647354 6.578436
vertex 263.071777 18.857845 7.643802
vertex 263.071777 20.230972 8.489269
endloop
endfacet
facet normal -1.000000 0.000035 0.000000
outer loop
vertex 263.071777 20.230972 8.489269
vertex 263.071777 21.727232 9.090516
vertex 263.071777 23.303581 9.430245
endloop
endfacet
facet normal -1.000000 0.000000 0.000000
outer loop
vertex 263.071777 23.303581 9.430245
vertex 263.071777 24.914671 9.498684
vertex 263.071777 26.514153 9.293862
endloop
endfacet
facet normal -1.000000 0.000000 0.000000
outer loop
vertex 263.071777 26.514153 9.293862
vertex 263.071777 28.056011 8.821673
vertex 263.071777 29.495892 8.095700
endloop
endfacet
facet normal -1.000000 -0.000139 0.000000
outer loop
vertex 263.071777 29.495892 8.095700
vertex 263.071777 30.792372 7.136829
vertex 263.071777 31.908152 5.972645
endloop
endfacet
facet normal -1.000000 0.000000 0.000000
outer loop
vertex 263.071777 31.908152 5.972645
vertex 263.071777 32.811134 4.636638
vertex 263.071777 33.475342 3.167243
endloop
endfacet
facet normal -1.000000 0.000139 0.000000
outer loop
vertex 263.071777 33.475342 3.167243
vertex 263.071777 33.881668 1.606733
vertex 263.071777 34.018421 -0.000000
endloop
endfacet
facet normal -1.000000 0.000139 0.000000
outer loop
vertex 263.071777 34.018421 -0.000000
vertex 263.071777 33.881668 -1.606733
vertex 263.071777 33.475342 -3.167243
endloop
endfacet
facet normal -1.000000 0.000000 0.000000
outer loop
vertex 263.071777 33.475342 -3.167243
vertex 263.071777 32.811134 -4.636638
vertex 263.071777 31.908152 -5.972645
endloop
endfacet
facet normal -1.000000 -0.000139 0.000000
outer loop
vertex 263.071777 31.908152 -5.972645
vertex 263.071777 30.792372 -7.136829
vertex 263.071777 29.495892 -8.095700
endloop
endfacet
facet normal -1.000000 0.000000 0.000000
outer loop
vertex 263.071777 29.495892 -8.095700
vertex 263.071777 28.056011 -8.821673
vertex 263.071777 26.514153 -9.293862
endloop
endfacet
facet normal -1.000000 0.000000 0.000000
outer loop
vertex 263.071777 26.514153 -9.293862
vertex 263.071777 24.914671 -9.498684
vertex 263.071777 23.303581 -9.430245
endloop
endfacet
facet normal -1.000000 0.000069 0.000000
outer loop
vertex 263.071777 23.303581 -9.430245
vertex 263.071777 21.727232 -9.090516
vertex 263.071777 20.230972 -8.489269
endloop
endfacet
facet normal -1.000000 0.000139 0.000000
outer loop
vertex 263.071777 20.230972 -8.489269
vertex 263.071777 18.857845 -7.643802
vertex 263.071777 17.647354 -6.578436
endloop
endfacet
facet normal -1.000000 0.000139 0.000000
outer loop
vertex 263.071777 17.647354 -6.578436
vertex 263.071777 16.634323 -5.323821
vertex 263.071777 15.847894 -3.916048
endloop
endfacet
facet normal -1.000000 0.000139 0.000000
outer loop
vertex 263.071777 15.847894 -3.916048
vertex 263.071777 15.310692 -2.395618
vertex 263.071777 15.038171 -0.806271
endloop
endfacet
facet normal -1.000000 -0.000093 0.000000
outer loop
vertex 263.071777 15.038171 -0.806271
vertex 263.071777 15.038171 0.806271
vertex 263.071777 15.847894 3.916048
endloop
endfacet
facet normal -1.000000 0.000000 0.000000
outer loop
vertex 263.071777 15.847894 3.916048
vertex 263.071777 17.647354 6.578436
vertex 263.071777 20.230972 8.489269
endloop
endfacet
facet normal -1.000000 -0.000004 0.000000
outer loop
vertex 263.071777 20.230972 8.489269
vertex 263.071777 23.303581 9.430245
vertex 263.071777 26.514153 9.293862
endloop
endfacet
facet normal -1.000000 0.000000 0.000000
outer loop
vertex 263.071777 26.514153 9.293862
vertex 263.071777 29.495892 8.095700
vertex 263.071777 31.908152 5.972645
endloop
endfacet
facet normal -1.000000 0.000000 0.000000
outer loop
vertex 263.071777 31.908152 5.972645
vertex 263.071777 33.475342 3.167243
vertex 263.071777 34.018421 -0.000000
endloop
endfacet
facet normal -1.000000 0.000000 0.000000
outer loop
vertex 263.071777 34.018421 -0.000000
vertex 263.071777 33.475342 -3.167243
vertex 263.071777 31.908152 -5.972645
endloop
endfacet
facet normal -1.000000 0.000000 0.000000
outer loop
vertex 263.071777 31.908152 -5.972645
vertex 263.071777 29.495892 -8.095700
vertex 263.071777 26.514153 -9.293862
endloop
endfacet
facet normal -1.000000 -0.000009 0.000000
outer loop
vertex 263.071777 26.514153 -9.293862
vertex 263.071777 23.303581 -9.430245
vertex 263.071777 20.230972 -8.489269
endloop
endfacet
facet normal -1.000000 0.000000 0.000000
outer loop
vertex 263.071777 20.230972 -8.489269
vertex 263.071777 17.647354 -6.578436
vertex 263.071777 15.847894 -3.916048
endloop
endfacet
facet normal -1.000000 0.000000 0.000000
outer loop
vertex 263.071777 15.847894 -3.916048
vertex 263.071777 15.038171 -0.806271
vertex 263.071777 15.847894 3.916048
endloop
endfacet
facet normal -1.000000 0.000004 0.000000
outer loop
vertex 263.071777 15.847894 3.916048
vertex 263.071777 20.230972 8.489269
vertex 263.071777 26.514153 9.293862
endloop
endfacet
facet normal -1.000000 0.000000 0.000000
outer loop
vertex 263.071777 26.514153 9.293862
vertex 263.071777 31.908152 5.972645
vertex 263.071777 34.018421 -0.000000
endloop
endfacet
facet normal -1.000000 0.000000 0.000000
outer loop
vertex 263.071777 34.018421 -0.000000
vertex 263.071777 31.908152 -5.972645
vertex 263.071777 26.514153 -9.293862
endloop
endfacet
facet normal -1.000000 0.000000 0.000000
outer loop
vertex 263.071777 26.514153 -9.293862
vertex 263.071777 20.230972 -8.489269
vertex 263.071777 15.847894 -3.916048
endloop
endfacet
facet normal -1.000000 0.000000 0.000000
outer loop
vertex 263.071777 15.847894 -3.916048
vertex 263.071777 15.847894 3.916048
vertex 263.071777 26.514153 9.293862
endloop
endfacet
facet normal -1.000000 0.000000 0.000000
outer loop
vertex 263.071777 26.514153 9.293862
vertex 263.071777 34.018421 -0.000000
vertex 263.071777 26.514153 -9.293862
endloop
endfacet
facet normal -1.000000 0.000000 0.000000
outer loop
vertex 263.071777 26.514153 9.293862
vertex 263.071777 26.514153 -9.293862
vertex 263.071777 15.847894 -3.916048
endloop
endfacet
endsolid inlet
