solid outlet_ur
facet normal 1.000000 0.000107 0.000000
outer loop
vertex 70.071182 58.197388 -2.210815
vertex 70.071182 58.356567 -1.333649
vertex 70.071182 58.436478 -0.445746
endloop
endfacet
facet normal 1.000000 -0.000107 0.000000
outer loop
vertex 70.071182 58.436478 -0.445746
vertex 70.071182 58.436478 0.445746
vertex 70.071182 58.356567 1.333649
endloop
endfacet
facet normal 1.000000 -0.000107 0.000000
outer loop
vertex 70.071182 58.356567 1.333649
vertex 70.071182 58.197388 2.210815
vertex 70.071182 57.960213 3.070180
endloop
endfacet
facet normal 1.000000 0.000000 0.000000
outer loop
vertex 70.071182 57.960213 3.070180
vertex 70.071182 57.646965 3.904826
vertex 70.071182 57.260162 4.708033
endloop
endfacet
facet normal 1.000000 -0.000107 0.000000
outer loop
vertex 70.071182 57.260162 4.708033
vertex 70.071182 56.802917 5.473333
vertex 70.071182 56.278915 6.194566
endloop
endfacet
facet normal 1.000000 0.000107 0.000000
outer loop
vertex 70.071182 56.278915 6.194566
vertex 70.071182 55.692368 6.865923
vertex 70.071182 55.048000 7.482000
endloop
endfacet
facet normal 1.000000 0.000107 0.000000
outer loop
vertex 70.071182 55.048000 7.482000
vertex 70.071182 54.351006 8.037836
vertex 70.071182 53.606987 8.528957
endloop
endfacet
facet normal 1.000000 -0.000054 0.000000
outer loop
vertex 70.071182 53.606987 8.528957
vertex 70.071182 52.821945 8.951407
vertex 70.071182 52.002190 9.301785
endloop
endfacet
facet normal 1.000000 0.000027 0.000000
outer loop
vertex 70.071182 52.002190 9.301785
vertex 70.071182 51.154335 9.577272
vertex 70.071182 50.285194 9.775648
endloop
endfacet
facet normal 1.000000 -0.000007 0.000000
outer loop
vertex 70.071182 50.285194 9.775648
vertex 70.071182 49.401768 9.895316
vertex 70.071182 48.511173 9.935312
endloop
endfacet
facet normal 1.000000 0.000000 0.000000
outer loop
vertex 70.071182 48.511173 9.935312
vertex 70.071182 47.620579 9.895316
vertex 70.071182 46.737152 9.775648
endloop
endfacet
facet normal 1.000000 0.000000 0.000000
outer loop
vertex 70.071182 46.737152 9.775648
vertex 70.071182 45.868011 9.577272
vertex 70.071182 45.020157 9.301785
endloop
endfacet
facet normal 1.000000 0.000054 0.000000
outer loop
vertex 70.071182 45.020157 9.301785
vertex 70.071182 44.200401 8.951407
vertex 70.071182 43.415359 8.528957
endloop
endfacet
facet normal 1.000000 -0.000107 0.000000
outer loop
vertex 70.071182 43.415359 8.528957
vertex 70.071182 42.671341 8.037836
vertex 70.071182 41.974346 7.482000
endloop
endfacet
facet normal 1.000000 -0.000107 0.000000
outer loop
vertex 70.071182 41.974346 7.482000
vertex 70.071182 41.329979 6.865923
vertex 70.071182 40.743431 6.194566
endloop
endfacet
facet normal 1.000000 0.000107 0.000000
outer loop
vertex 70.071182 40.743431 6.194566
vertex 70.071182 40.219429 5.473333
vertex 70.071182 39.762180 4.708033
endloop
endfacet
facet normal 1.000000 0.000000 0.000000
outer loop
vertex 70.071182 39.762180 4.708033
vertex 70.071182 39.375378 3.904826
vertex 70.071182 39.062130 3.070180
endloop
endfacet
facet normal 1.000000 0.000107 0.000000
outer loop
vertex 70.071182 39.062130 3.070180
vertex 70.071182 38.824959 2.210815
vertex 70.071182 38.665779 1.333649
endloop
endfacet
facet normal 1.000000 0.000107 0.000000
outer loop
vertex 70.071182 38.665779 1.333649
vertex 70.071182 38.585865 0.445746
vertex 70.071182 38.585865 -0.445746
endloop
endfacet
facet normal 1.000000 -0.000107 0.000000
outer loop
vertex 70.071182 38.585865 -0.445746
vertex 70.071182 38.665779 -1.333649
vertex 70.071182 38.824959 -2.210815
endloop
endfacet
facet normal 1.000000 0.000000 0.000000
outer loop
vertex 70.071182 38.824959 -2.210815
vertex 70.071182 39.062130 -3.070180
vertex 70.071182 39.375378 -3.904826
endloop
endfacet
facet normal 1.000000 0.000107 0.000000
outer loop
vertex 70.071182 39.375378 -3.904826
vertex 70.071182 39.762180 -4.708033
vertex 70.071182 40.219429 -5.473333
endloop
endfacet
facet normal 1.000000 0.000107 0.000000
outer loop
vertex 70.071182 40.219429 -5.473333
vertex 70.071182 40.743431 -6.194566
vertex 70.071182 41.329979 -6.865923
endloop
endfacet
facet normal 1.000000 -0.000107 0.000000
outer loop
vertex 70.071182 41.329979 -6.865923
vertex 70.071182 41.974346 -7.482000
vertex 70.071182 42.671341 -8.037836
endloop
endfacet
facet normal 1.000000 0.000054 0.000000
outer loop
vertex 70.071182 42.671341 -8.037836
vertex 70.071182 43.415359 -8.528957
vertex 70.071182 44.200401 -8.951407
endloop
endfacet
facet normal 1.000000 0.000000 0.000000
outer loop
vertex 70.071182 44.200401 -8.951407
vertex 70.071182 45.020157 -9.301785
vertex 70.071182 45.868011 -9.577272
endloop
endfacet
facet normal 1.000000 0.000027 0.000000
outer loop
vertex 70.071182 45.868011 -9.577272
vertex 70.071182 46.737152 -9.775648
vertex 70.071182 47.620579 -9.895316
endloop
endfacet
facet normal 1.000000 0.000000 0.000000
outer loop
vertex 70.071182 47.620579 -9.895316
vertex 70.071182 48.511173 -9.935312
vertex 70.071182 49.401768 -9.895316
endloop
endfacet
facet normal 1.000000 -0.000027 0.000000
outer loop
vertex 70.071182 49.401768 -9.895316
vertex 70.071182 50.285194 -9.775648
vertex 70.071182 51.154335 -9.577272
endloop
endfacet
facet normal 1.000000 0.000000 0.000000
outer loop
vertex 70.071182 51.154335 -9.577272
vertex 70.071182 52.002190 -9.301785
vertex 70.071182 52.821945 -8.951407
endloop
endfacet
facet normal 1.000000 -0.000107 0.000000
outer loop
vertex 70.071182 52.821945 -8.951407
vertex 70.071182 53.606987 -8.528957
vertex 70.071182 54.351006 -8.037836
endloop
endfacet
facet normal 1.000000 0.000107 0.000000
outer loop
vertex 70.071182 54.351006 -8.037836
vertex 70.071182 55.048000 -7.482000
vertex 70.071182 55.692368 -6.865923
endloop
endfacet
facet normal 1.000000 -0.000107 0.000000
outer loop
vertex 70.071182 55.692368 -6.865923
vertex 70.071182 56.278915 -6.194566
vertex 70.071182 56.802917 -5.473333
endloop
endfacet
facet normal 1.000000 -0.000107 0.000000
outer loop
vertex 70.071182 56.802917 -5.473333
vertex 70.071182 57.260162 -4.708033
vertex 70.071182 57.646965 -3.904826
endloop
endfacet
facet normal 1.000000 0.000000 0.000000
outer loop
vertex 70.071182 57.646965 -3.904826
vertex 70.071182 57.960213 -3.070180
vertex 70.071182 58.197388 -2.210815
endloop
endfacet
facet normal 1.000000 0.000000 0.000000
outer loop
vertex 70.071182 58.197388 -2.210815
vertex 70.071182 58.436478 -0.445746
vertex 70.071182 58.356567 1.333649
endloop
endfacet
facet normal 1.000000 0.000000 0.000000
outer loop
vertex 70.071182 58.356567 1.333649
vertex 70.071182 57.960213 3.070180
vertex 70.071182 57.260162 4.708033
endloop
endfacet
facet normal 1.000000 0.000000 0.000000
outer loop
vertex 70.071182 57.260162 4.708033
vertex 70.071182 56.278915 6.194566
vertex 70.071182 55.048000 7.482000
endloop
endfacet
facet normal 1.000000 0.000000 0.000000
outer loop
vertex 70.071182 55.048000 7.482000
vertex 70.071182 53.606987 8.528957
vertex 70.071182 52.002190 9.301785
endloop
endfacet
facet normal 1.000000 -0.000003 0.000000
outer loop
vertex 70.071182 52.002190 9.301785
vertex 70.071182 50.285194 9.775648
vertex 70.071182 48.511173 9.935312
endloop
endfacet
facet normal 1.000000 0.000000 0.000000
outer loop
vertex 70.071182 48.511173 9.935312
vertex 70.071182 46.737152 9.775648
vertex 70.071182 45.020157 9.301785
endloop
endfacet
facet normal 1.000000 0.000000 0.000000
outer loop
vertex 70.071182 45.020157 9.301785
vertex 70.071182 43.415359 8.528957
vertex 70.071182 41.974346 7.482000
endloop
endfacet
facet normal 1.000000 0.000000 0.000000
outer loop
vertex 70.071182 41.974346 7.482000
vertex 70.071182 40.743431 6.194566
vertex 70.071182 39.762180 4.708033
endloop
endfacet
facet normal 1.000000 0.000000 0.000000
outer loop
vertex 70.071182 39.762180 4.708033
vertex 70.071182 39.062130 3.070180
vertex 70.071182 38.665779 1.333649
endloop
endfacet
facet normal 1.000000 0.000000 0.000000
outer loop
vertex 70.071182 38.665779 1.333649
vertex 70.071182 38.585865 -0.445746
vertex 70.071182 38.824959 -2.210815
endloop
endfacet
facet normal 1.000000 0.000000 0.000000
outer loop
vertex 70.071182 38.824959 -2.210815
vertex 70.071182 39.375378 -3.904826
vertex 70.071182 40.219429 -5.473333
endloop
endfacet
facet normal 1.000000 0.000000 0.000000
outer loop
vertex 70.071182 40.219429 -5.473333
vertex 70.071182 41.329979 -6.865923
vertex 70.071182 42.671341 -8.037836
endloop
endfacet
facet normal 1.000000 -0.000013 0.000000
outer loop
vertex 70.071182 42.671341 -8.037836
vertex 70.071182 44.200401 -8.951407
vertex 70.071182 45.868011 -9.577272
endloop
endfacet
facet normal 1.000000 0.000000 0.000000
outer loop
vertex 70.071182 45.868011 -9.577272
vertex 70.071182 47.620579 -9.895316
vertex 70.071182 49.401768 -9.895316
endloop
endfacet
facet normal 1.000000 0.000013 0.000000
outer loop
vertex 70.071182 49.401768 -9.895316
vertex 70.071182 51.154335 -9.577272
vertex 70.071182 52.821945 -8.951407
endloop
endfacet
facet normal 1.000000 -0.000027 0.000000
outer loop
vertex 70.071182 52.821945 -8.951407
vertex 70.071182 54.351006 -8.037836
vertex 70.071182 55.692368 -6.865923
endloop
endfacet
facet normal 1.000000 0.000000 0.000000
outer loop
vertex 70.071182 55.692368 -6.865923
vertex 70.071182 56.802917 -5.473333
vertex 70.071182 57.646965 -3.904826
endloop
endfacet
facet normal 1.000000 0.000000 0.000000
outer loop
vertex 70.071182 57.646965 -3.904826
vertex 70.071182 58.197388 -2.210815
vertex 70.071182 58.356567 1.333649
endloop
endfacet
facet normal 1.000000 -0.000007 0.000000
outer loop
vertex 70.071182 58.356567 1.333649
vertex 70.071182 57.260162 4.708033
vertex 70.071182 55.048000 7.482000
endloop
endfacet
facet normal 1.000000 -0.000002 0.000000
outer loop
vertex 70.071182 55.048000 7.482000
vertex 70.071182 52.002190 9.301785
vertex 70.071182 48.511173 9.935312
endloop
endfacet
facet normal 1.000000 0.000000 0.000000
outer loop
vertex 70.071182 48.511173 9.935312
vertex 70.071182 45.020157 9.301785
vertex 70.071182 41.974346 7.482000
endloop
endfacet
facet normal 1.000000 0.000007 0.000000
outer loop
vertex 70.071182 41.974346 7.482000
vertex 70.071182 39.762180 4.708033
vertex 70.071182 38.665779 1.333649
endloop
endfacet
facet normal 1.000000 -0.000014 0.000000
outer loop
vertex 70.071182 38.665779 1.333649
vertex 70.071182 38.824959 -2.210815
vertex 70.071182 40.219429 -5.473333
endloop
endfacet
facet normal 1.000000 -0.000003 0.000000
outer loop
vertex 70.071182 40.219429 -5.473333
vertex 70.071182 42.671341 -8.037836
vertex 70.071182 45.868011 -9.577272
endloop
endfacet
facet normal 1.000000 -0.000003 0.000000
outer loop
vertex 70.071182 45.868011 -9.577272
vertex 70.071182 49.401768 -9.895316
vertex 70.071182 52.821945 -8.951407
endloop
endfacet
facet normal 1.000000 0.000007 0.000000
outer loop
vertex 70.071182 52.821945 -8.951407
vertex 70.071182 55.692368 -6.865923
vertex 70.071182 57.646965 -3.904826
endloop
endfacet
facet normal 1.000000 -0.000003 0.000000
outer loop
vertex 70.071182 57.646965 -3.904826
vertex 70.071182 58.356567 1.333649
vertex 70.071182 55.048000 7.482000
endloop
endfacet
facet normal 1.000000 0.000000 0.000000
outer loop
vertex 70.071182 55.048000 7.482000
vertex 70.071182 48.511173 9.935312
vertex 70.071182 41.974346 7.482000
endloop
endfacet
facet normal 1.000000 0.000002 0.000000
outer loop
vertex 70.071182 41.974346 7.482000
vertex 70.071182 38.665779 1.333649
vertex 70.071182 40.219429 -5.473333
endloop
endfacet
facet normal 1.000000 0.000000 0.000000
outer loop
vertex 70.071182 40.219429 -5.473333
vertex 70.071182 45.868011 -9.577272
vertex 70.071182 52.821945 -8.951407
endloop
endfacet
facet normal 1.000000 0.000002 0.000000
outer loop
vertex 70.071182 52.821945 -8.951407
vertex 70.071182 57.646965 -3.904826
vertex 70.071182 55.048000 7.482000
endloop
endfacet
facet normal 1.000000 0.000000 0.000000
outer loop
vertex 70.071182 55.048000 7.482000
vertex 70.071182 41.974346 7.482000
vertex 70.071182 40.219429 -5.473333
endloop
endfacet
facet normal 1.000000 0.000000 0.000000
outer loop
vertex 70.071182 55.048000 7.482000
vertex 70.071182 40.219429 -5.473333
vertex 70.071182 52.821945 -8.951407
endloop
endfacet
endsolid outlet_ur
