solid Exported from Blender-2.79 (sub 0)
facet normal -1.000000 0.000000 0.000000
outer loop
vertex 70.070091 8.133720 -7.323632
vertex 70.070091 7.323635 -8.133718
vertex 70.070091 6.433311 -8.854689
endloop
endfacet
facet normal -1.000000 0.000000 0.000000
outer loop
vertex 70.070091 6.433311 -8.854689
vertex 70.070091 5.472502 -9.478645
vertex 70.070091 4.451735 -9.998753
endloop
endfacet
facet normal -1.000000 -0.000028 0.000000
outer loop
vertex 70.070091 4.451735 -9.998753
vertex 70.070091 3.382195 -10.409310
vertex 70.070091 2.275597 -10.705822
endloop
endfacet
facet normal -1.000000 0.000007 0.000000
outer loop
vertex 70.070091 2.275597 -10.705822
vertex 70.070091 1.144068 -10.885039
vertex 70.070091 0.000004 -10.944997
endloop
endfacet
facet normal -1.000000 0.000000 0.000000
outer loop
vertex 70.070091 0.000004 -10.944997
vertex 70.070091 -1.144060 -10.885039
vertex 70.070091 -2.275589 -10.705822
endloop
endfacet
facet normal -1.000000 0.000028 0.000000
outer loop
vertex 70.070091 -2.275589 -10.705822
vertex 70.070091 -3.382187 -10.409310
vertex 70.070091 -4.451727 -9.998753
endloop
endfacet
facet normal -1.000000 0.000000 0.000000
outer loop
vertex 70.070091 -4.451727 -9.998753
vertex 70.070091 -5.472494 -9.478645
vertex 70.070091 -6.433304 -8.854689
endloop
endfacet
facet normal -1.000000 0.000000 0.000000
outer loop
vertex 70.070091 -6.433304 -8.854689
vertex 70.070091 -7.323627 -8.133718
vertex 70.070091 -8.133711 -7.323632
endloop
endfacet
facet normal -1.000000 0.000111 0.000000
outer loop
vertex 70.070091 -8.133711 -7.323632
vertex 70.070091 -8.854689 -6.433308
vertex 70.070091 -9.478643 -5.472498
endloop
endfacet
facet normal -1.000000 0.000111 0.000000
outer loop
vertex 70.070091 -9.478643 -5.472498
vertex 70.070091 -9.998747 -4.451731
vertex 70.070091 -10.409307 -3.382190
endloop
endfacet
facet normal -1.000000 0.000000 0.000000
outer loop
vertex 70.070091 -10.409307 -3.382190
vertex 70.070091 -10.705816 -2.275593
vertex 70.070091 -10.885038 -1.144064
endloop
endfacet
facet normal -1.000000 0.000000 0.000000
outer loop
vertex 70.070091 -10.885038 -1.144064
vertex 70.070091 -10.944990 -0.000000
vertex 70.070091 -10.885038 1.144064
endloop
endfacet
facet normal -1.000000 0.000000 0.000000
outer loop
vertex 70.070091 -10.885038 1.144064
vertex 70.070091 -10.705816 2.275593
vertex 70.070091 -10.409307 3.382190
endloop
endfacet
facet normal -1.000000 0.000111 0.000000
outer loop
vertex 70.070091 -10.409307 3.382190
vertex 70.070091 -9.998747 4.451731
vertex 70.070091 -9.478643 5.472498
endloop
endfacet
facet normal -1.000000 0.000111 0.000000
outer loop
vertex 70.070091 -9.478643 5.472498
vertex 70.070091 -8.854689 6.433308
vertex 70.070091 -8.133711 7.323632
endloop
endfacet
facet normal -1.000000 0.000000 0.000000
outer loop
vertex 70.070091 -8.133711 7.323632
vertex 70.070091 -7.323627 8.133718
vertex 70.070091 -6.433304 8.854689
endloop
endfacet
facet normal -1.000000 0.000000 0.000000
outer loop
vertex 70.070091 -6.433304 8.854689
vertex 70.070091 -5.472494 9.478645
vertex 70.070091 -4.451727 9.998753
endloop
endfacet
facet normal -1.000000 0.000028 0.000000
outer loop
vertex 70.070091 -4.451727 9.998753
vertex 70.070091 -3.382187 10.409310
vertex 70.070091 -2.275589 10.705822
endloop
endfacet
facet normal -1.000000 -0.000007 0.000000
outer loop
vertex 70.070091 -2.275589 10.705822
vertex 70.070091 -1.144060 10.885039
vertex 70.070091 0.000004 10.944997
endloop
endfacet
facet normal -1.000000 0.000000 0.000000
outer loop
vertex 70.070091 0.000004 10.944997
vertex 70.070091 1.144068 10.885039
vertex 70.070091 2.275597 10.705822
endloop
endfacet
facet normal -1.000000 -0.000028 0.000000
outer loop
vertex 70.070091 2.275597 10.705822
vertex 70.070091 3.382195 10.409310
vertex 70.070091 4.451735 9.998753
endloop
endfacet
facet normal -1.000000 0.000000 0.000000
outer loop
vertex 70.070091 4.451735 9.998753
vertex 70.070091 5.472502 9.478645
vertex 70.070091 6.433311 8.854689
endloop
endfacet
facet normal -1.000000 0.000000 0.000000
outer loop
vertex 70.070091 6.433311 8.854689
vertex 70.070091 7.323635 8.133718
vertex 70.070091 8.133720 7.323632
endloop
endfacet
facet normal -1.000000 -0.000111 0.000000
outer loop
vertex 70.070091 8.133720 7.323632
vertex 70.070091 8.854692 6.433308
vertex 70.070091 9.478649 5.472498
endloop
endfacet
facet normal -1.000000 -0.000111 0.000000
outer loop
vertex 70.070091 9.478649 5.472498
vertex 70.070091 9.998756 4.451731
vertex 70.070091 10.409314 3.382190
endloop
endfacet
facet normal -1.000000 0.000000 0.000000
outer loop
vertex 70.070091 10.409314 3.382190
vertex 70.070091 10.705826 2.275593
vertex 70.070091 10.885043 1.144064
endloop
endfacet
facet normal -1.000000 0.000000 0.000000
outer loop
vertex 70.070091 10.885043 1.144064
vertex 70.070091 10.945001 -0.000000
vertex 70.070091 10.885043 -1.144064
endloop
endfacet
facet normal -1.000000 0.000000 0.000000
outer loop
vertex 70.070091 10.885043 -1.144064
vertex 70.070091 10.705826 -2.275593
vertex 70.070091 10.409314 -3.382190
endloop
endfacet
facet normal -1.000000 -0.000111 0.000000
outer loop
vertex 70.070091 10.409314 -3.382190
vertex 70.070091 9.998756 -4.451731
vertex 70.070091 9.478649 -5.472498
endloop
endfacet
facet normal -1.000000 -0.000111 0.000000
outer loop
vertex 70.070091 9.478649 -5.472498
vertex 70.070091 8.854692 -6.433308
vertex 70.070091 8.133720 -7.323632
endloop
endfacet
facet normal -1.000000 0.000014 0.000000
outer loop
vertex 70.070091 8.133720 -7.323632
vertex 70.070091 6.433311 -8.854689
vertex 70.070091 4.451735 -9.998753
endloop
endfacet
facet normal -1.000000 0.000000 0.000000
outer loop
vertex 70.070091 4.451735 -9.998753
vertex 70.070091 2.275597 -10.705822
vertex 70.070091 0.000004 -10.944997
endloop
endfacet
facet normal -1.000000 0.000000 0.000000
outer loop
vertex 70.070091 0.000004 -10.944997
vertex 70.070091 -2.275589 -10.705822
vertex 70.070091 -4.451727 -9.998753
endloop
endfacet
facet normal -1.000000 -0.000014 0.000000
outer loop
vertex 70.070091 -4.451727 -9.998753
vertex 70.070091 -6.433304 -8.854689
vertex 70.070091 -8.133711 -7.323632
endloop
endfacet
facet normal -1.000000 -0.000028 0.000000
outer loop
vertex 70.070091 -8.133711 -7.323632
vertex 70.070091 -9.478643 -5.472498
vertex 70.070091 -10.409307 -3.382190
endloop
endfacet
facet normal -1.000000 -0.000028 0.000000
outer loop
vertex 70.070091 -10.409307 -3.382190
vertex 70.070091 -10.885038 -1.144064
vertex 70.070091 -10.885038 1.144064
endloop
endfacet
facet normal -1.000000 0.000000 0.000000
outer loop
vertex 70.070091 -10.885038 1.144064
vertex 70.070091 -10.409307 3.382190
vertex 70.070091 -9.478643 5.472498
endloop
endfacet
facet normal -1.000000 -0.000028 0.000000
outer loop
vertex 70.070091 -9.478643 5.472498
vertex 70.070091 -8.133711 7.323632
vertex 70.070091 -6.433304 8.854689
endloop
endfacet
facet normal -1.000000 -0.000014 0.000000
outer loop
vertex 70.070091 -6.433304 8.854689
vertex 70.070091 -4.451727 9.998753
vertex 70.070091 -2.275589 10.705822
endloop
endfacet
facet normal -1.000000 0.000000 0.000000
outer loop
vertex 70.070091 -2.275589 10.705822
vertex 70.070091 0.000004 10.944997
vertex 70.070091 2.275597 10.705822
endloop
endfacet
facet normal -1.000000 0.000014 0.000000
outer loop
vertex 70.070091 2.275597 10.705822
vertex 70.070091 4.451735 9.998753
vertex 70.070091 6.433311 8.854689
endloop
endfacet
facet normal -1.000000 0.000028 0.000000
outer loop
vertex 70.070091 6.433311 8.854689
vertex 70.070091 8.133720 7.323632
vertex 70.070091 9.478649 5.472498
endloop
endfacet
facet normal -1.000000 0.000000 0.000000
outer loop
vertex 70.070091 9.478649 5.472498
vertex 70.070091 10.409314 3.382190
vertex 70.070091 10.885043 1.144064
endloop
endfacet
facet normal -1.000000 0.000028 0.000000
outer loop
vertex 70.070091 10.885043 1.144064
vertex 70.070091 10.885043 -1.144064
vertex 70.070091 10.409314 -3.382190
endloop
endfacet
facet normal -1.000000 0.000028 0.000000
outer loop
vertex 70.070091 10.409314 -3.382190
vertex 70.070091 9.478649 -5.472498
vertex 70.070091 8.133720 -7.323632
endloop
endfacet
facet normal -1.000000 0.000000 0.000000
outer loop
vertex 70.070091 8.133720 -7.323632
vertex 70.070091 4.451735 -9.998753
vertex 70.070091 0.000004 -10.944997
endloop
endfacet
facet normal -1.000000 0.000000 0.000000
outer loop
vertex 70.070091 0.000004 -10.944997
vertex 70.070091 -4.451727 -9.998753
vertex 70.070091 -8.133711 -7.323632
endloop
endfacet
facet normal -1.000000 0.000000 0.000000
outer loop
vertex 70.070091 -8.133711 -7.323632
vertex 70.070091 -10.409307 -3.382190
vertex 70.070091 -10.885038 1.144064
endloop
endfacet
facet normal -1.000000 -0.000004 0.000000
outer loop
vertex 70.070091 -10.885038 1.144064
vertex 70.070091 -9.478643 5.472498
vertex 70.070091 -6.433304 8.854689
endloop
endfacet
facet normal -1.000000 0.000000 0.000000
outer loop
vertex 70.070091 -6.433304 8.854689
vertex 70.070091 -2.275589 10.705822
vertex 70.070091 2.275597 10.705822
endloop
endfacet
facet normal -1.000000 -0.000004 0.000000
outer loop
vertex 70.070091 2.275597 10.705822
vertex 70.070091 6.433311 8.854689
vertex 70.070091 9.478649 5.472498
endloop
endfacet
facet normal -1.000000 -0.000007 0.000000
outer loop
vertex 70.070091 9.478649 5.472498
vertex 70.070091 10.885043 1.144064
vertex 70.070091 10.409314 -3.382190
endloop
endfacet
facet normal -1.000000 -0.000001 0.000000
outer loop
vertex 70.070091 10.409314 -3.382190
vertex 70.070091 8.133720 -7.323632
vertex 70.070091 0.000004 -10.944997
endloop
endfacet
facet normal -1.000000 0.000002 0.000000
outer loop
vertex 70.070091 0.000004 -10.944997
vertex 70.070091 -8.133711 -7.323632
vertex 70.070091 -10.885038 1.144064
endloop
endfacet
facet normal -1.000000 0.000001 0.000000
outer loop
vertex 70.070091 -10.885038 1.144064
vertex 70.070091 -6.433304 8.854689
vertex 70.070091 2.275597 10.705822
endloop
endfacet
facet normal -1.000000 0.000002 0.000000
outer loop
vertex 70.070091 2.275597 10.705822
vertex 70.070091 9.478649 5.472498
vertex 70.070091 10.409314 -3.382190
endloop
endfacet
facet normal -1.000000 -0.000001 0.000000
outer loop
vertex 70.070091 10.409314 -3.382190
vertex 70.070091 0.000004 -10.944997
vertex 70.070091 -10.885038 1.144064
endloop
endfacet
facet normal -1.000000 -0.000000 0.000000
outer loop
vertex 70.070091 -10.885038 1.144064
vertex 70.070091 2.275597 10.705822
vertex 70.070091 10.409314 -3.382190
endloop
endfacet
endsolid Exported from Blender-2.79 (sub 0)
